<svg width="753" height="140" viewBox="0 0 753 140" fill="none" xmlns="http://www.w3.org/2000/svg">
<path d="M0.985352 122.44C3.90527 120.663 6.40202 118.801 8.47559 116.854C10.5915 114.908 12.3265 112.75 13.6807 110.38C15.0348 108.052 16.0293 105.45 16.6641 102.572C17.2988 99.6523 17.6162 96.3516 17.6162 92.6699V6.78613H37.7383V89.0518C37.7383 93.4528 37.5479 97.473 37.167 101.112C36.7861 104.709 36.1514 108.01 35.2627 111.015C34.4163 114.062 33.2526 116.854 31.7715 119.394C30.3327 121.933 28.5342 124.345 26.376 126.63C24.2601 128.915 21.7422 131.116 18.8223 133.231C15.9447 135.347 12.6016 137.484 8.79297 139.643L0.985352 122.44ZM59.9043 68.5488C59.9043 63.1745 60.9834 58.1387 63.1416 53.4414C65.3421 48.7441 68.4525 44.6393 72.4727 41.127C76.5352 37.6146 81.4229 34.8428 87.1357 32.8115C92.891 30.7803 99.3444 29.7646 106.496 29.7646C113.648 29.7646 120.08 30.7803 125.793 32.8115C131.548 34.8428 136.436 37.6146 140.456 41.127C144.519 44.6393 147.629 48.7441 149.787 53.4414C151.988 58.1387 153.088 63.1745 153.088 68.5488C153.088 73.9232 151.988 78.959 149.787 83.6562C147.629 88.3535 144.519 92.4583 140.456 95.9707C136.436 99.4831 131.548 102.255 125.793 104.286C120.08 106.317 113.648 107.333 106.496 107.333C99.3444 107.333 92.891 106.317 87.1357 104.286C81.4229 102.255 76.5352 99.4831 72.4727 95.9707C68.4525 92.4583 65.3421 88.3535 63.1416 83.6562C60.9834 78.959 59.9043 73.9232 59.9043 68.5488ZM79.6455 68.5488C79.6455 71.5534 80.238 74.4098 81.4229 77.1182C82.6501 79.7842 84.4062 82.154 86.6914 84.2275C89.0189 86.2588 91.833 87.888 95.1338 89.1152C98.4769 90.3001 102.264 90.8926 106.496 90.8926C110.728 90.8926 114.494 90.3001 117.795 89.1152C121.138 87.888 123.952 86.2588 126.237 84.2275C128.565 82.154 130.321 79.7842 131.506 77.1182C132.733 74.4098 133.347 71.5534 133.347 68.5488C133.347 65.5443 132.733 62.6878 131.506 59.9795C130.321 57.2712 128.565 54.9014 126.237 52.8701C123.952 50.7965 121.138 49.1673 117.795 47.9824C114.494 46.7552 110.728 46.1416 106.496 46.1416C102.264 46.1416 98.4769 46.7552 95.1338 47.9824C91.833 49.1673 89.0189 50.7965 86.6914 52.8701C84.4062 54.9014 82.6501 57.2712 81.4229 59.9795C80.238 62.6878 79.6455 65.5443 79.6455 68.5488ZM174.81 0.692383H193.599V38.1436C195.249 37.001 197.196 35.9219 199.438 34.9062C201.681 33.8906 204.093 33.002 206.675 32.2402C209.256 31.4785 211.922 30.8861 214.673 30.4629C217.424 29.9974 220.174 29.7646 222.925 29.7646C229.272 29.7646 235.091 30.6956 240.381 32.5576C245.713 34.4196 250.283 37.0433 254.092 40.4287C257.9 43.8141 260.863 47.8766 262.979 52.6162C265.137 57.3135 266.216 62.5186 266.216 68.2314C266.216 74.1982 265.094 79.5938 262.852 84.418C260.609 89.1999 257.498 93.3047 253.521 96.7324C249.585 100.118 244.888 102.742 239.429 104.604C234.012 106.423 228.13 107.333 221.782 107.333C219.074 107.333 216.387 107.164 213.721 106.825C211.097 106.487 208.558 106.021 206.104 105.429C203.691 104.836 201.406 104.138 199.248 103.334C197.132 102.488 195.249 101.578 193.599 100.604V106H174.81V0.692383ZM193.599 82.4502C195.503 83.9736 197.513 85.2643 199.629 86.3223C201.745 87.3802 203.903 88.2477 206.104 88.9248C208.304 89.6019 210.526 90.1097 212.769 90.4482C215.011 90.7445 217.191 90.8926 219.307 90.8926C223.623 90.8926 227.453 90.3213 230.796 89.1787C234.181 87.9938 237.017 86.3857 239.302 84.3545C241.629 82.3232 243.407 79.9323 244.634 77.1816C245.861 74.431 246.475 71.4476 246.475 68.2314C246.475 65.2269 245.861 62.3916 244.634 59.7256C243.449 57.0596 241.714 54.7321 239.429 52.7432C237.186 50.7119 234.456 49.125 231.24 47.9824C228.066 46.7975 224.491 46.2051 220.513 46.2051C217.974 46.2051 215.435 46.459 212.896 46.9668C210.356 47.4323 207.902 48.1094 205.532 48.998C203.205 49.8867 201.004 50.9658 198.931 52.2354C196.899 53.5049 195.122 54.9225 193.599 56.4883V82.4502ZM289.842 83.0215C294.92 86.0684 300.506 88.3112 306.6 89.75C312.693 91.1888 318.935 91.9082 325.325 91.9082C329.642 91.9082 333.239 91.612 336.116 91.0195C338.994 90.4271 341.3 89.6654 343.035 88.7344C344.77 87.8034 345.997 86.7454 346.717 85.5605C347.436 84.3757 347.796 83.1696 347.796 81.9424C347.796 80.165 347.013 78.6416 345.447 77.3721C343.924 76.1025 341.385 75.4678 337.83 75.4678C336.18 75.4678 334.402 75.5736 332.498 75.7852C330.594 75.9967 328.584 76.2295 326.468 76.4834C324.394 76.695 322.215 76.9066 319.93 77.1182C317.687 77.3298 315.402 77.4355 313.074 77.4355C307.996 77.4355 303.659 76.8854 300.062 75.7852C296.507 74.6849 293.608 73.1826 291.365 71.2783C289.122 69.374 287.493 67.1312 286.478 64.5498C285.462 61.9261 284.954 59.112 284.954 56.1074C284.954 52.2988 285.843 48.7865 287.62 45.5703C289.397 42.3542 291.937 39.5824 295.237 37.2549C298.538 34.8851 302.516 33.0443 307.171 31.7324C311.868 30.4206 317.094 29.7646 322.85 29.7646C325.854 29.7646 328.986 29.9551 332.244 30.3359C335.545 30.6745 338.782 31.14 341.956 31.7324C345.13 32.3249 348.177 33.0231 351.097 33.8271C354.017 34.5889 356.598 35.4141 358.841 36.3027L352.938 50.9023C348.156 49.125 343.374 47.7285 338.592 46.7129C333.852 45.6549 328.965 45.126 323.929 45.126C320.416 45.126 317.433 45.401 314.979 45.9512C312.566 46.459 310.599 47.1572 309.075 48.0459C307.552 48.8923 306.43 49.8867 305.711 51.0293C305.034 52.1296 304.695 53.2933 304.695 54.5205C304.695 55.4092 304.865 56.2132 305.203 56.9326C305.584 57.652 306.176 58.2868 306.98 58.8369C307.827 59.3447 308.906 59.7467 310.218 60.043C311.572 60.2969 313.222 60.4238 315.169 60.4238C316.946 60.4238 318.829 60.318 320.818 60.1064C322.807 59.8949 324.881 59.6833 327.039 59.4717C329.197 59.2178 331.419 58.985 333.704 58.7734C336.032 58.5618 338.401 58.4561 340.813 58.4561C345.299 58.4561 349.214 58.985 352.557 60.043C355.942 61.1009 358.735 62.582 360.936 64.4863C363.136 66.3906 364.786 68.6335 365.887 71.2148C366.987 73.7962 367.537 76.6104 367.537 79.6572C367.537 83.5928 366.627 87.2533 364.808 90.6387C362.988 94.0241 360.28 96.9652 356.683 99.4619C353.086 101.916 348.6 103.842 343.226 105.238C337.894 106.635 331.715 107.333 324.69 107.333C320.374 107.333 316.206 107.058 312.186 106.508C308.165 106 304.336 105.302 300.696 104.413C297.057 103.482 293.629 102.403 290.413 101.176C287.239 99.9486 284.34 98.6367 281.717 97.2402L289.842 83.0215ZM399.034 45.1895H380.943V31.0977H399.034V7.80176H417.823V31.0977H435.914V45.1895H417.823V106H399.034V45.1895ZM452.304 82.3867C452.304 78.7897 453.087 75.5101 454.652 72.5479C456.218 69.5856 458.567 67.0465 461.698 64.9307C464.83 62.7725 468.723 61.1221 473.378 59.9795C478.075 58.7946 483.534 58.2021 489.755 58.2021C494.368 58.2021 499.213 58.5407 504.291 59.2178C509.411 59.8949 514.68 60.9316 520.097 62.3281C519.885 59.9583 519.166 57.779 517.938 55.79C516.711 53.7588 514.997 52.0238 512.797 50.585C510.639 49.1038 508.015 47.9613 504.926 47.1572C501.879 46.3532 498.409 45.9512 494.516 45.9512C492.4 45.9512 490.072 46.0781 487.533 46.332C484.994 46.5859 482.37 46.9668 479.662 47.4746C476.954 47.9824 474.267 48.6172 471.601 49.3789C468.977 50.1406 466.522 51.0505 464.237 52.1084L458.524 36.6836C461.36 35.668 464.385 34.737 467.602 33.8906C470.86 33.0443 474.182 32.3249 477.567 31.7324C480.953 31.0977 484.338 30.611 487.724 30.2725C491.109 29.9339 494.389 29.7646 497.562 29.7646C511.57 29.7646 521.98 33.3405 528.793 40.4922C535.606 47.6439 539.013 58.6042 539.013 73.373V106H520.224V98.9541C518.277 100.097 516.14 101.176 513.812 102.191C511.527 103.207 509.031 104.096 506.322 104.857C503.614 105.619 500.694 106.212 497.562 106.635C494.473 107.1 491.194 107.333 487.724 107.333C481.884 107.333 476.742 106.698 472.299 105.429C467.898 104.159 464.216 102.403 461.254 100.16C458.292 97.9173 456.049 95.2936 454.525 92.2891C453.044 89.2422 452.304 85.9414 452.304 82.3867ZM472.108 81.752C472.108 82.9792 472.426 84.1641 473.061 85.3066C473.695 86.4069 474.711 87.4014 476.107 88.29C477.504 89.1364 479.281 89.8346 481.439 90.3848C483.64 90.8926 486.285 91.1465 489.374 91.1465C492.675 91.1465 495.87 90.8503 498.959 90.2578C502.048 89.6654 504.926 88.8825 507.592 87.9092C510.258 86.9359 512.67 85.8145 514.828 84.5449C516.986 83.2754 518.785 81.9635 520.224 80.6094V77.3086C517.346 76.5046 514.49 75.8275 511.654 75.2773C508.861 74.7272 506.174 74.304 503.593 74.0078C501.054 73.6693 498.642 73.4365 496.356 73.3096C494.114 73.1826 492.146 73.1191 490.453 73.1191C486.941 73.1191 484.021 73.3519 481.693 73.8174C479.366 74.2829 477.483 74.9176 476.044 75.7217C474.605 76.4834 473.59 77.3932 472.997 78.4512C472.405 79.5091 472.108 80.6094 472.108 81.752ZM562.639 68.7393C562.639 63.238 563.633 58.1175 565.622 53.3779C567.653 48.596 570.594 44.4701 574.445 41C578.339 37.4876 583.078 34.737 588.664 32.748C594.292 30.7591 600.703 29.7646 607.897 29.7646C611.029 29.7646 614.182 29.9551 617.355 30.3359C620.529 30.7168 623.576 31.2669 626.496 31.9863C629.458 32.6634 632.23 33.4886 634.812 34.4619C637.393 35.3929 639.636 36.4297 641.54 37.5723L632.844 51.7275C628.739 49.8232 624.846 48.4268 621.164 47.5381C617.525 46.6494 613.822 46.2051 610.056 46.2051C605.739 46.2051 601.867 46.7764 598.439 47.9189C595.012 49.0192 592.092 50.585 589.68 52.6162C587.31 54.6051 585.49 56.9749 584.221 59.7256C582.993 62.4339 582.38 65.3962 582.38 68.6123C582.38 71.8285 583.036 74.8118 584.348 77.5625C585.702 80.2708 587.585 82.6195 589.997 84.6084C592.451 86.555 595.393 88.0996 598.82 89.2422C602.29 90.3424 606.141 90.8926 610.373 90.8926C615.028 90.8926 619.408 90.2367 623.513 88.9248C627.66 87.613 631.511 85.8568 635.065 83.6562L643.762 97.8115C641.519 99.1657 639.086 100.435 636.462 101.62C633.838 102.763 631.024 103.757 628.02 104.604C625.057 105.45 621.926 106.106 618.625 106.571C615.367 107.079 611.981 107.333 608.469 107.333C601.317 107.333 594.906 106.36 589.235 104.413C583.565 102.466 578.762 99.7793 574.826 96.3516C570.891 92.8815 567.865 88.7979 565.749 84.1006C563.675 79.4033 562.639 74.2829 562.639 68.7393ZM667.324 0.692383H686.113V62.8994L721.152 31.0977H749.907L710.742 66.1367L752.383 106H724.199L696.333 79.0225L686.113 88.1631V106H667.324V0.692383Z" fill="#065666"/>
<path d="M0.985352 122.44L-0.0545423 120.732L-1.56822 121.653L-0.835841 123.267L0.985352 122.44ZM8.47559 116.854L7.12147 115.383L7.11406 115.389L7.10671 115.396L8.47559 116.854ZM13.6807 110.38L11.952 109.374L11.948 109.381L11.9442 109.388L13.6807 110.38ZM16.6641 102.572L18.6171 103.003L18.6184 102.997L16.6641 102.572ZM17.6162 6.78613V4.78613H15.6162V6.78613H17.6162ZM37.7383 6.78613H39.7383V4.78613H37.7383V6.78613ZM37.167 101.112L39.1559 101.323L39.1561 101.32L37.167 101.112ZM35.2627 111.015L33.3448 110.447L33.3401 110.463L33.3357 110.479L35.2627 111.015ZM31.7715 119.394L30.0439 118.386L30.0376 118.397L30.0314 118.408L31.7715 119.394ZM26.376 126.63L24.922 125.257L24.9152 125.264L24.9085 125.271L26.376 126.63ZM18.8223 133.231L17.6487 131.612L17.6375 131.62L18.8223 133.231ZM8.79297 139.643L6.97178 140.469L7.87585 142.461L9.77899 141.383L8.79297 139.643ZM2.02525 124.149C5.04036 122.314 7.6524 120.37 9.84446 118.313L7.10671 115.396C5.15163 117.232 2.77019 119.013 -0.0545423 120.732L2.02525 124.149ZM9.8297 118.326C12.0888 116.248 13.9556 113.93 15.4172 111.372L11.9442 109.388C10.6974 111.569 9.09412 113.568 7.12147 115.383L9.8297 118.326ZM15.4094 111.386C16.8769 108.863 17.9419 106.064 18.6171 103.003L14.711 102.141C14.1167 104.836 13.1927 107.242 11.952 109.374L15.4094 111.386ZM18.6184 102.997C19.2896 99.9099 19.6162 96.4629 19.6162 92.6699H15.6162C15.6162 96.2402 15.3081 99.3948 14.7097 102.147L18.6184 102.997ZM19.6162 92.6699V6.78613H15.6162V92.6699H19.6162ZM17.6162 8.78613H37.7383V4.78613H17.6162V8.78613ZM35.7383 6.78613V89.0518H39.7383V6.78613H35.7383ZM35.7383 89.0518C35.7383 93.3967 35.5502 97.3461 35.1779 100.904L39.1561 101.32C39.5455 97.5998 39.7383 93.5089 39.7383 89.0518H35.7383ZM35.1781 100.902C34.8081 104.396 34.1943 107.576 33.3448 110.447L37.1806 111.582C38.1085 108.445 38.7641 105.023 39.1559 101.323L35.1781 100.902ZM33.3357 110.479C32.5318 113.373 31.4323 116.006 30.0439 118.386L33.499 120.401C35.0729 117.703 36.3009 114.75 37.1897 111.55L33.3357 110.479ZM30.0314 118.408C28.6779 120.796 26.978 123.08 24.922 125.257L27.83 128.003C30.0903 125.61 31.9875 123.069 33.5115 120.38L30.0314 118.408ZM24.9085 125.271C22.8944 127.446 20.4786 129.561 17.6487 131.612L19.9958 134.851C23.0058 132.67 25.6258 130.384 27.8435 127.989L24.9085 125.271ZM17.6375 131.62C14.8358 133.68 11.5615 135.775 7.80694 137.903L9.77899 141.383C13.6416 139.194 17.0535 137.014 20.007 134.843L17.6375 131.62ZM10.6142 138.816L2.80654 121.614L-0.835841 123.267L6.97178 140.469L10.6142 138.816ZM63.1416 53.4414L61.3305 52.593L61.3273 52.5997L61.3242 52.6064L63.1416 53.4414ZM72.4727 41.127L71.1646 39.614L71.1568 39.6208L72.4727 41.127ZM87.1357 32.8115L86.4701 30.9255L86.4657 30.9271L87.1357 32.8115ZM125.793 32.8115L125.123 34.696L125.127 34.6975L125.793 32.8115ZM140.456 41.127L139.14 42.6331L139.148 42.6399L140.456 41.127ZM149.787 53.4414L147.97 54.2764L147.973 54.2831L147.976 54.2899L149.787 53.4414ZM149.787 83.6562L147.976 82.8078L147.973 82.8145L147.97 82.8212L149.787 83.6562ZM140.456 95.9707L139.148 94.4577L139.14 94.4646L140.456 95.9707ZM125.793 104.286L125.127 102.4L125.123 102.402L125.793 104.286ZM87.1357 104.286L86.4657 106.171L86.4701 106.172L87.1357 104.286ZM72.4727 95.9707L71.1568 97.4769L71.1646 97.4836L72.4727 95.9707ZM63.1416 83.6562L61.3242 84.4913L61.3273 84.498L61.3305 84.5047L63.1416 83.6562ZM81.4229 77.1182L79.5905 77.9198L79.5981 77.9372L79.6061 77.9545L81.4229 77.1182ZM86.6914 84.2275L85.3474 85.7087L85.3618 85.7217L85.3763 85.7344L86.6914 84.2275ZM95.1338 89.1152L94.4368 90.9899L94.4512 90.9952L94.4657 91.0003L95.1338 89.1152ZM117.795 89.1152L118.471 90.9976L118.477 90.9952L118.484 90.9927L117.795 89.1152ZM126.237 84.2275L127.566 85.7224L127.568 85.7209L126.237 84.2275ZM131.506 77.1182L129.684 76.2927L129.681 76.2993L129.678 76.3059L131.506 77.1182ZM131.506 59.9795L129.674 60.7811L129.679 60.7931L129.684 60.805L131.506 59.9795ZM126.237 52.8701L124.893 54.3512L124.908 54.3642L124.922 54.377L126.237 52.8701ZM117.795 47.9824L117.098 49.857L117.112 49.8624L117.127 49.8675L117.795 47.9824ZM95.1338 47.9824L95.8095 49.8648L95.8163 49.8624L95.823 49.8599L95.1338 47.9824ZM86.6914 52.8701L88.0201 54.3649L88.0218 54.3634L86.6914 52.8701ZM81.4229 59.9795L79.6011 59.154L79.5958 59.1659L79.5905 59.1779L81.4229 59.9795ZM61.9043 68.5488C61.9043 63.451 62.9259 58.7013 64.959 54.2764L61.3242 52.6064C59.0409 57.576 57.9043 62.898 57.9043 68.5488H61.9043ZM64.9527 54.2899C67.0321 49.8512 69.971 45.9684 73.7885 42.6331L71.1568 39.6208C66.9339 43.3102 63.6522 47.6371 61.3305 52.593L64.9527 54.2899ZM73.7807 42.6399C77.6328 39.3095 82.2968 36.6547 87.8058 34.696L86.4657 30.9271C80.5489 33.0308 75.4375 35.9197 71.1646 39.614L73.7807 42.6399ZM87.8014 34.6975C93.3096 32.7534 99.533 31.7646 106.496 31.7646V27.7646C99.1558 27.7646 92.4723 28.8071 86.4701 30.9255L87.8014 34.6975ZM106.496 31.7646C113.46 31.7646 119.66 32.7535 125.123 34.696L126.463 30.9271C120.5 28.807 113.836 27.7646 106.496 27.7646V31.7646ZM125.127 34.6975C130.678 36.6564 135.336 39.3095 139.14 42.6331L141.772 39.6208C137.536 35.9197 132.419 33.0291 126.459 30.9255L125.127 34.6975ZM139.148 42.6399C143.003 45.9727 145.936 49.8491 147.97 54.2764L151.604 52.6064C149.322 47.6392 146.034 43.3059 141.764 39.614L139.148 42.6399ZM147.976 54.2899C150.048 58.7119 151.088 63.4568 151.088 68.5488H155.088C155.088 62.8921 153.928 57.5654 151.598 52.593L147.976 54.2899ZM151.088 68.5488C151.088 73.6408 150.048 78.3858 147.976 82.8078L151.598 84.5047C153.928 79.5322 155.088 74.2055 155.088 68.5488H151.088ZM147.97 82.8212C145.936 87.2486 143.003 91.1249 139.148 94.4578L141.764 97.4836C146.034 93.7917 149.322 89.4585 151.604 84.4913L147.97 82.8212ZM139.14 94.4646C135.336 97.7882 130.678 100.441 125.127 102.4L126.459 106.172C132.419 104.069 137.536 101.178 141.772 97.4768L139.14 94.4646ZM125.123 102.402C119.66 104.344 113.46 105.333 106.496 105.333V109.333C113.836 109.333 120.5 108.291 126.463 106.171L125.123 102.402ZM106.496 105.333C99.533 105.333 93.3096 104.344 87.8014 102.4L86.4701 106.172C92.4723 108.291 99.1558 109.333 106.496 109.333V105.333ZM87.8058 102.402C82.2968 100.443 77.6328 97.7882 73.7807 94.4578L71.1646 97.4836C75.4375 101.178 80.5489 104.067 86.4657 106.171L87.8058 102.402ZM73.7885 94.4646C69.971 91.1293 67.0321 87.2465 64.9527 82.8078L61.3305 84.5047C63.6522 89.4606 66.9339 93.7874 71.1568 97.4768L73.7885 94.4646ZM64.959 82.8212C62.9259 78.3964 61.9043 73.6467 61.9043 68.5488H57.9043C57.9043 74.1997 59.0409 79.5216 61.3242 84.4913L64.959 82.8212ZM77.6455 68.5488C77.6455 71.8247 78.2932 74.9545 79.5905 77.9198L83.2552 76.3165C82.1827 73.8652 81.6455 71.2821 81.6455 68.5488H77.6455ZM79.6061 77.9545C80.9516 80.8775 82.8733 83.4636 85.3474 85.7087L88.0354 82.7464C85.9392 80.8443 84.3485 78.6908 83.2396 76.2819L79.6061 77.9545ZM85.3763 85.7344C87.9095 87.9452 90.9408 89.6901 94.4368 90.9899L95.8308 87.2406C92.7252 86.086 90.1282 84.5724 88.0065 82.7207L85.3763 85.7344ZM94.4657 91.0003C98.0602 92.2744 102.079 92.8926 106.496 92.8926V88.8926C102.449 88.8926 98.8936 88.3259 95.8019 87.2301L94.4657 91.0003ZM106.496 92.8926C110.912 92.8926 114.914 92.2745 118.471 90.9976L117.119 87.2328C114.075 88.3257 110.544 88.8926 106.496 88.8926V92.8926ZM118.484 90.9927C122.024 89.6932 125.065 87.9451 127.566 85.7224L124.909 82.7327C122.839 84.5724 120.252 86.0829 117.106 87.2377L118.484 90.9927ZM127.568 85.7209C130.093 83.4714 132.025 80.8737 133.333 77.9304L129.678 76.3059C128.617 78.6946 127.037 80.8366 124.907 82.7342L127.568 85.7209ZM133.328 77.9436C134.674 74.9732 135.347 71.835 135.347 68.5488H131.347C131.347 71.2718 130.793 73.8465 129.684 76.2927L133.328 77.9436ZM135.347 68.5488C135.347 65.2626 134.674 62.1245 133.328 59.154L129.684 60.805C130.793 63.2512 131.347 65.8259 131.347 68.5488H135.347ZM133.338 59.1779C132.03 56.187 130.092 53.5796 127.552 51.3633L124.922 54.377C127.038 56.2231 128.612 58.3554 129.674 60.7811L133.338 59.1779ZM127.581 51.389C125.073 49.1127 122.019 47.3576 118.463 46.0973L117.127 49.8675C120.257 50.977 122.832 52.4804 124.893 54.3512L127.581 51.389ZM118.492 46.1078C114.928 44.7828 110.919 44.1416 106.496 44.1416V48.1416C110.537 48.1416 114.06 48.7276 117.098 49.857L118.492 46.1078ZM106.496 44.1416C102.072 44.1416 98.0456 44.783 94.4446 46.1049L95.823 49.8599C98.9081 48.7274 102.456 48.1416 106.496 48.1416V44.1416ZM94.4581 46.1C90.9462 47.3607 87.9022 49.1128 85.361 51.3768L88.0218 54.3634C90.1355 52.4803 92.7198 50.9739 95.8095 49.8648L94.4581 46.1ZM85.3627 51.3753C82.8742 53.5873 80.9473 56.1832 79.6011 59.154L83.2446 60.805C84.3528 58.3591 85.9383 56.2155 88.0201 54.3649L85.3627 51.3753ZM79.5905 59.1779C78.2932 62.1432 77.6455 65.273 77.6455 68.5488H81.6455C81.6455 65.8155 82.1827 63.2325 83.2552 60.7811L79.5905 59.1779ZM174.81 0.692383V-1.30762H172.81V0.692383H174.81ZM193.599 0.692383H195.599V-1.30762H193.599V0.692383ZM193.599 38.1436H191.599V41.9607L194.737 39.7879L193.599 38.1436ZM214.673 30.4629L214.977 32.4396L214.992 32.4374L215.007 32.4349L214.673 30.4629ZM240.381 32.5576L239.717 34.4442L239.721 34.4458L240.381 32.5576ZM254.092 40.4287L255.421 38.9339L254.092 40.4287ZM262.979 52.6162L261.152 53.4315L261.157 53.4414L261.161 53.4512L262.979 52.6162ZM262.852 84.418L264.662 85.2673L264.665 85.2611L262.852 84.418ZM253.521 96.7324L254.825 98.2486L254.826 98.2475L253.521 96.7324ZM239.429 104.604L240.066 106.499L240.074 106.496L239.429 104.604ZM213.721 106.825L213.465 108.809L213.469 108.809L213.721 106.825ZM206.104 105.429L205.626 107.371L205.634 107.373L206.104 105.429ZM199.248 103.334L198.505 105.191L198.527 105.2L198.55 105.208L199.248 103.334ZM193.599 100.604L194.615 98.8818L191.599 97.1031V100.604H193.599ZM193.599 106V108H195.599V106H193.599ZM174.81 106H172.81V108H174.81V106ZM193.599 82.4502H191.599V83.4114L192.349 84.0119L193.599 82.4502ZM212.769 90.4482L212.47 92.4258L212.488 92.4286L212.507 92.431L212.769 90.4482ZM230.796 89.1787L231.443 91.0712L231.45 91.0689L231.457 91.0664L230.796 89.1787ZM239.302 84.3545L237.987 82.8476L237.98 82.8536L237.973 82.8597L239.302 84.3545ZM244.634 59.7256L242.806 60.5379L242.812 60.5499L242.817 60.5619L244.634 59.7256ZM239.429 52.7432L238.086 54.2256L238.101 54.2388L238.116 54.2518L239.429 52.7432ZM231.24 47.9824L230.541 49.8561L230.556 49.8617L230.571 49.867L231.24 47.9824ZM212.896 46.9668L213.256 48.934L213.272 48.9311L213.288 48.928L212.896 46.9668ZM205.532 48.998L204.83 47.1254L204.819 47.1296L205.532 48.998ZM198.931 52.2354L197.886 50.5296L197.878 50.5345L197.871 50.5394L198.931 52.2354ZM193.599 56.4883L192.165 55.0936L191.599 55.6759V56.4883H193.599ZM174.81 2.69238H193.599V-1.30762H174.81V2.69238ZM191.599 0.692383V38.1436H195.599V0.692383H191.599ZM194.737 39.7879C196.269 38.7271 198.107 37.7048 200.263 36.7282L198.613 33.0843C196.285 34.1389 194.229 35.2748 192.46 36.4992L194.737 39.7879ZM200.263 36.7282C202.415 35.7539 204.74 34.8965 207.241 34.1585L206.109 30.322C203.447 31.1074 200.948 32.0274 198.613 33.0843L200.263 36.7282ZM207.241 34.1585C209.733 33.4229 212.312 32.8497 214.977 32.4396L214.369 28.4861C211.533 28.9225 208.779 29.5341 206.109 30.322L207.241 34.1585ZM215.007 32.4349C217.649 31.9878 220.288 31.7646 222.925 31.7646V27.7646C220.061 27.7646 217.198 28.007 214.339 28.4909L215.007 32.4349ZM222.925 31.7646C229.076 31.7646 234.667 32.6665 239.717 34.4442L241.045 30.6711C235.516 28.7248 229.469 27.7646 222.925 27.7646V31.7646ZM239.721 34.4458C244.834 36.231 249.17 38.7296 252.763 41.9235L255.421 38.9339C251.397 35.357 246.592 32.6082 241.04 30.6694L239.721 34.4458ZM252.763 41.9235C256.355 45.1167 259.15 48.9462 261.152 53.4315L264.805 51.8009C262.575 46.807 259.445 42.5115 255.421 38.9339L252.763 41.9235ZM261.161 53.4512C263.187 57.8601 264.216 62.7762 264.216 68.2314H268.216C268.216 62.2609 267.087 56.7668 264.796 51.7812L261.161 53.4512ZM264.216 68.2314C264.216 73.9426 263.144 79.0452 261.038 83.5748L264.665 85.2611C267.045 80.1423 268.216 74.4539 268.216 68.2314H264.216ZM261.041 83.5687C258.917 88.0971 255.978 91.9746 252.215 95.2173L254.826 98.2475C259.019 94.6348 262.301 90.3026 264.662 85.2672L261.041 83.5687ZM252.216 95.2162C248.495 98.4177 244.027 100.922 238.783 102.711L240.074 106.496C245.748 104.561 250.675 101.818 254.825 98.2486L252.216 95.2162ZM238.792 102.708C233.602 104.451 227.937 105.333 221.782 105.333V109.333C228.323 109.333 234.422 108.395 240.066 106.499L238.792 102.708ZM221.782 105.333C219.157 105.333 216.554 105.169 213.973 104.841L213.469 108.809C216.219 109.158 218.99 109.333 221.782 109.333V105.333ZM213.977 104.842C211.421 104.512 208.954 104.059 206.573 103.485L205.634 107.373C208.162 107.983 210.773 108.461 213.465 108.809L213.977 104.842ZM206.581 103.486C204.238 102.911 202.027 102.235 199.946 101.46L198.55 105.208C200.786 106.041 203.145 106.762 205.626 107.371L206.581 103.486ZM199.991 101.477C197.952 100.662 196.163 99.7949 194.615 98.8818L192.583 102.327C194.335 103.361 196.312 104.314 198.505 105.191L199.991 101.477ZM191.599 100.604V106H195.599V100.604H191.599ZM193.599 104H174.81V108H193.599V104ZM176.81 106V0.692383H172.81V106H176.81ZM192.349 84.0119C194.36 85.6206 196.489 86.9883 198.734 88.1111L200.523 84.5334C198.537 83.5404 196.646 82.3266 194.848 80.8885L192.349 84.0119ZM198.734 88.1111C200.946 89.217 203.207 90.126 205.515 90.8364L206.692 87.0132C204.599 86.3694 202.543 85.5434 200.523 84.5334L198.734 88.1111ZM205.515 90.8364C207.809 91.5422 210.128 92.0723 212.47 92.4258L213.067 88.4706C210.924 88.1471 208.799 87.6616 206.692 87.0132L205.515 90.8364ZM212.507 92.431C214.83 92.7379 217.097 92.8926 219.307 92.8926V88.8926C217.284 88.8926 215.192 88.751 213.03 88.4655L212.507 92.431ZM219.307 92.8926C223.796 92.8926 227.851 92.2987 231.443 91.0712L230.149 87.2862C227.055 88.3438 223.45 88.8926 219.307 88.8926V92.8926ZM231.457 91.0664C235.046 89.8101 238.12 88.0811 240.63 85.8493L237.973 82.8597C235.913 84.6904 233.316 86.1776 230.135 87.291L231.457 91.0664ZM240.617 85.8613C243.157 83.6443 245.112 81.0191 246.46 77.9965L242.807 76.3668C241.701 78.8455 240.101 81.0022 237.987 82.8476L240.617 85.8613ZM246.46 77.9965C247.81 74.9723 248.475 71.709 248.475 68.2314H244.475C244.475 71.1861 243.913 73.8896 242.807 76.3668L246.46 77.9965ZM248.475 68.2314C248.475 64.9452 247.801 61.8239 246.451 58.8893L242.817 60.5619C243.921 62.9593 244.475 65.5086 244.475 68.2314H248.475ZM246.461 58.9133C245.153 55.9701 243.239 53.4077 240.742 51.2346L238.116 54.2518C240.189 56.0565 241.744 58.1491 242.806 60.5379L246.461 58.9133ZM240.771 51.2608C238.309 49.0311 235.343 47.3175 231.91 46.0978L230.571 49.867C233.57 50.9325 236.062 52.3928 238.086 54.2256L240.771 51.2608ZM231.94 46.1087C228.507 44.8271 224.689 44.2051 220.513 44.2051V48.2051C224.292 48.2051 227.626 48.7679 230.541 49.8561L231.94 46.1087ZM220.513 44.2051C217.839 44.2051 215.169 44.4725 212.503 45.0056L213.288 48.928C215.7 48.4455 218.108 48.2051 220.513 48.2051V44.2051ZM212.535 44.9996C209.882 45.486 207.313 46.1943 204.83 47.1254L206.234 50.8707C208.491 50.0244 210.831 49.3786 213.256 48.934L212.535 44.9996ZM204.819 47.1296C202.379 48.0611 200.068 49.1942 197.886 50.5296L199.975 53.9411C201.941 52.7374 204.03 51.7123 206.246 50.8665L204.819 47.1296ZM197.871 50.5394C195.716 51.8859 193.811 53.4023 192.165 55.0936L195.032 57.883C196.433 56.4427 198.083 55.1239 199.991 53.9313L197.871 50.5394ZM191.599 56.4883V82.4502H195.599V56.4883H191.599ZM289.842 83.0215L290.871 81.3065L289.119 80.2554L288.105 82.0292L289.842 83.0215ZM306.6 89.75L306.14 91.6965L306.6 89.75ZM345.447 77.3721L344.167 78.9085L344.177 78.9171L344.188 78.9256L345.447 77.3721ZM326.468 76.4834L326.671 78.4731L326.688 78.4713L326.706 78.4692L326.468 76.4834ZM319.93 77.1182L319.745 75.1267L319.742 75.127L319.93 77.1182ZM300.062 75.7852L299.47 77.6957L299.477 77.6977L300.062 75.7852ZM286.478 64.5498L284.612 65.2718L284.616 65.2821L286.478 64.5498ZM295.237 37.2549L296.39 38.8894L296.397 38.8845L296.404 38.8795L295.237 37.2549ZM307.171 31.7324L306.633 29.8061L306.628 29.8074L307.171 31.7324ZM332.244 30.3359L332.012 32.3224L332.026 32.3241L332.04 32.3255L332.244 30.3359ZM351.097 33.8271L350.566 35.7554L350.579 35.759L350.592 35.7624L351.097 33.8271ZM358.841 36.3027L360.695 37.0525L361.45 35.1853L359.578 34.4434L358.841 36.3027ZM352.938 50.9023L352.241 52.777L354.063 53.4543L354.792 51.6521L352.938 50.9023ZM338.592 46.7129L338.156 48.6649L338.166 48.6671L338.176 48.6693L338.592 46.7129ZM314.979 45.9512L315.391 47.9083L315.403 47.9056L315.416 47.9028L314.979 45.9512ZM309.075 48.0459L310.046 49.7942L310.065 49.784L310.083 49.7735L309.075 48.0459ZM305.711 51.0293L304.018 49.9637L304.013 49.9724L304.008 49.9811L305.711 51.0293ZM305.203 56.9326L303.393 57.7842L303.414 57.8268L303.436 57.8684L305.203 56.9326ZM306.98 58.8369L305.851 60.4875L305.9 60.5212L305.951 60.5519L306.98 58.8369ZM310.218 60.043L309.777 61.9939L309.813 62.0019L309.849 62.0087L310.218 60.043ZM327.039 59.4717L327.234 61.4621L327.253 61.4602L327.273 61.458L327.039 59.4717ZM333.704 58.7734L333.523 56.7816L333.52 56.782L333.704 58.7734ZM352.557 60.043L351.953 61.9498L351.96 61.9519L352.557 60.043ZM365.887 71.2148L367.727 70.4306L365.887 71.2148ZM364.808 90.6387L363.046 89.6918L364.808 90.6387ZM356.683 99.4619L357.81 101.114L357.816 101.109L357.823 101.105L356.683 99.4619ZM343.226 105.238L342.723 103.303L342.719 103.304L343.226 105.238ZM312.186 106.508L312.457 104.526L312.446 104.525L312.436 104.524L312.186 106.508ZM300.696 104.413L300.201 106.351L300.211 106.353L300.222 106.356L300.696 104.413ZM290.413 101.176L289.692 103.041L289.7 103.044L290.413 101.176ZM281.717 97.2402L279.98 96.248L278.958 98.0374L280.777 99.0057L281.717 97.2402ZM288.813 84.7365C294.078 87.8953 299.857 90.213 306.14 91.6965L307.059 87.8035C301.155 86.4094 295.762 84.2414 290.871 81.3065L288.813 84.7365ZM306.14 91.6965C312.387 93.1716 318.784 93.9082 325.325 93.9082V89.9082C319.087 89.9082 312.999 89.206 307.059 87.8035L306.14 91.6965ZM325.325 93.9082C329.72 93.9082 333.463 93.6077 336.52 92.9784L335.713 89.0606C333.014 89.6163 329.563 89.9082 325.325 89.9082V93.9082ZM336.52 92.9784C339.503 92.3642 342.014 91.5521 343.981 90.4967L342.09 86.9721C340.586 87.7786 338.485 88.49 335.713 89.0606L336.52 92.9784ZM343.981 90.4967C345.905 89.464 347.46 88.1909 348.426 86.5985L345.007 84.5226C344.535 85.3 343.635 86.1427 342.09 86.9721L343.981 90.4967ZM348.426 86.5985C349.311 85.1422 349.796 83.5813 349.796 81.9424H345.796C345.796 82.7579 345.562 83.6091 345.007 84.5226L348.426 86.5985ZM349.796 81.9424C349.796 79.4764 348.67 77.4104 346.707 75.8186L344.188 78.9256C345.356 79.8728 345.796 80.8537 345.796 81.9424H349.796ZM346.728 75.8356C344.654 74.1073 341.522 73.4678 337.83 73.4678V77.4678C341.248 77.4678 343.194 78.0978 344.167 78.9085L346.728 75.8356ZM337.83 73.4678C336.095 73.4678 334.243 73.5789 332.277 73.7974L332.719 77.7729C334.561 77.5682 336.264 77.4678 337.83 77.4678V73.4678ZM332.277 73.7974C330.366 74.0097 328.351 74.2431 326.229 74.4976L326.706 78.4692C328.817 78.2159 330.821 77.9838 332.719 77.7729L332.277 73.7974ZM326.265 74.4937C324.198 74.7046 322.025 74.9156 319.745 75.1267L320.114 79.1096C322.405 78.8975 324.59 78.6853 326.671 78.4731L326.265 74.4937ZM319.742 75.127C317.563 75.3325 315.341 75.4355 313.074 75.4355V79.4355C315.462 79.4355 317.81 79.327 320.118 79.1093L319.742 75.127ZM313.074 75.4355C308.13 75.4355 304.001 74.8986 300.647 73.8726L299.477 77.6977C303.316 78.8722 307.862 79.4355 313.074 79.4355V75.4355ZM300.653 73.8746C297.29 72.8338 294.65 71.4435 292.66 69.7537L290.071 72.8029C292.566 74.9217 295.723 76.536 299.47 77.6957L300.653 73.8746ZM292.66 69.7537C290.652 68.0495 289.226 66.0735 288.339 63.8176L284.616 65.2821C285.76 68.1888 287.592 70.6986 290.071 72.8029L292.66 69.7537ZM288.343 63.8278C287.422 61.4497 286.954 58.882 286.954 56.1074H282.954C282.954 59.342 283.502 62.4026 284.612 65.2718L288.343 63.8278ZM286.954 56.1074C286.954 52.6244 287.763 49.4466 289.371 46.5377L285.87 44.6029C283.923 48.1263 282.954 51.9733 282.954 56.1074H286.954ZM289.371 46.5377C290.988 43.6116 293.311 41.0601 296.39 38.8894L294.085 35.6204C290.562 38.1046 287.807 41.0967 285.87 44.6029L289.371 46.5377ZM296.404 38.8795C299.483 36.6684 303.241 34.9179 307.713 33.6574L306.628 29.8074C301.791 31.1706 297.593 33.1018 294.071 35.6302L296.404 38.8795ZM307.709 33.6587C312.203 32.4036 317.245 31.7646 322.85 31.7646V27.7646C316.944 27.7646 311.533 28.4375 306.633 29.8061L307.709 33.6587ZM322.85 31.7646C325.77 31.7646 328.824 31.9498 332.012 32.3224L332.476 28.3495C329.148 27.9604 325.938 27.7646 322.85 27.7646V31.7646ZM332.04 32.3255C335.288 32.6586 338.471 33.1164 341.589 33.6985L342.323 29.7664C339.094 29.1636 335.802 28.6904 332.448 28.3464L332.04 32.3255ZM341.589 33.6985C344.711 34.2813 347.703 34.9672 350.566 35.7554L351.628 31.8989C348.65 31.079 345.548 30.3685 342.323 29.7664L341.589 33.6985ZM350.592 35.7624C353.452 36.5084 355.953 37.3097 358.104 38.1621L359.578 34.4434C357.243 33.5184 354.582 32.6693 351.602 31.8919L350.592 35.7624ZM356.987 35.553L351.083 50.1526L354.792 51.6521L360.695 37.0525L356.987 35.553ZM353.634 49.0276C348.765 47.2177 343.889 45.7933 339.007 44.7565L338.176 48.6693C342.859 49.6637 347.546 51.0323 352.241 52.777L353.634 49.0276ZM339.028 44.7609C334.14 43.6699 329.106 43.126 323.929 43.126V47.126C328.823 47.126 333.565 47.64 338.156 48.6649L339.028 44.7609ZM323.929 43.126C320.322 43.126 317.183 43.4074 314.541 43.9996L315.416 47.9028C317.683 47.3947 320.51 47.126 323.929 47.126V43.126ZM314.566 43.9941C312.022 44.5299 309.833 45.2883 308.067 46.3183L310.083 49.7735C311.364 49.0262 313.111 48.3881 315.391 47.9083L314.566 43.9941ZM308.104 46.2976C306.37 47.261 304.962 48.4656 304.018 49.9637L307.403 52.0949C307.899 51.3079 308.734 50.5235 310.046 49.7942L308.104 46.2976ZM304.008 49.9811C303.147 51.3792 302.695 52.9033 302.695 54.5205H306.695C306.695 53.6833 306.92 52.8799 307.414 52.0775L304.008 49.9811ZM302.695 54.5205C302.695 55.6687 302.916 56.7686 303.393 57.7842L307.013 56.081C306.814 55.6579 306.695 55.1497 306.695 54.5205H302.695ZM303.436 57.8684C303.995 58.9255 304.832 59.7902 305.851 60.4875L308.11 57.1863C307.521 56.7834 307.173 56.3785 306.971 55.9968L303.436 57.8684ZM305.951 60.5519C307.033 61.2007 308.328 61.6666 309.777 61.9939L310.658 58.0921C309.484 57.8269 308.621 57.4887 308.009 57.1219L305.951 60.5519ZM309.849 62.0087C311.363 62.2926 313.145 62.4238 315.169 62.4238V58.4238C313.3 58.4238 311.781 58.3012 310.586 58.0772L309.849 62.0087ZM315.169 62.4238C317.025 62.4238 318.979 62.3134 321.03 62.0952L320.607 58.1177C318.68 58.3227 316.868 58.4238 315.169 58.4238V62.4238ZM321.03 62.0952C323.013 61.8843 325.081 61.6732 327.234 61.4621L326.844 57.4812C324.681 57.6933 322.602 57.9055 320.607 58.1177L321.03 62.0952ZM327.273 61.458C329.414 61.2061 331.619 60.9751 333.888 60.7649L333.52 56.782C331.219 56.995 328.981 57.2294 326.805 57.4854L327.273 61.458ZM333.885 60.7652C336.151 60.5593 338.46 60.4561 340.813 60.4561V56.4561C338.343 56.4561 335.913 56.5644 333.523 56.7817L333.885 60.7652ZM340.813 60.4561C345.149 60.4561 348.851 60.9681 351.953 61.9498L353.16 58.1362C349.576 57.002 345.45 56.4561 340.813 56.4561V60.4561ZM351.96 61.9519C355.139 62.9455 357.674 64.3088 359.627 65.9987L362.244 62.974C359.796 60.8552 356.745 59.2564 353.153 58.134L351.96 61.9519ZM359.627 65.9987C361.606 67.7114 363.07 69.7081 364.047 71.999L367.727 70.4306C366.503 67.5588 364.666 65.0698 362.244 62.974L359.627 65.9987ZM364.047 71.999C365.033 74.3119 365.537 76.8565 365.537 79.6572H369.537C369.537 76.3642 368.941 73.2806 367.727 70.4306L364.047 71.999ZM365.537 79.6572C365.537 83.2705 364.705 86.6046 363.046 89.6918L366.569 91.5856C368.549 87.9019 369.537 83.915 369.537 79.6572H365.537ZM363.046 89.6918C361.395 92.763 358.916 95.4768 355.542 97.8189L357.823 101.105C361.643 98.4535 364.581 95.2852 366.569 91.5856L363.046 89.6918ZM355.555 97.8099C352.193 100.104 347.933 101.949 342.723 103.303L343.729 107.174C349.267 105.735 353.978 103.728 357.81 101.114L355.555 97.8099ZM342.719 103.304C337.59 104.647 331.588 105.333 324.69 105.333V109.333C331.842 109.333 338.197 108.623 343.732 107.173L342.719 103.304ZM324.69 105.333C320.459 105.333 316.382 105.063 312.457 104.526L311.914 108.489C316.03 109.053 320.289 109.333 324.69 109.333V105.333ZM312.436 104.524C308.485 104.025 304.731 103.339 301.171 102.47L300.222 106.356C303.941 107.264 307.845 107.975 311.935 108.492L312.436 104.524ZM301.192 102.475C297.62 101.562 294.265 100.505 291.126 99.3072L289.7 103.044C292.993 104.301 296.494 105.403 300.201 106.351L301.192 102.475ZM291.134 99.3104C288.025 98.108 285.2 96.8286 282.656 95.4747L280.777 99.0057C283.481 100.445 286.454 101.789 289.692 103.041L291.134 99.3104ZM283.453 98.2325L291.578 84.0138L288.105 82.0292L279.98 96.248L283.453 98.2325ZM399.034 45.1895H401.034V43.1895H399.034V45.1895ZM380.943 45.1895H378.943V47.1895H380.943V45.1895ZM380.943 31.0977V29.0977H378.943V31.0977H380.943ZM399.034 31.0977V33.0977H401.034V31.0977H399.034ZM399.034 7.80176V5.80176H397.034V7.80176H399.034ZM417.823 7.80176H419.823V5.80176H417.823V7.80176ZM417.823 31.0977H415.823V33.0977H417.823V31.0977ZM435.914 31.0977H437.914V29.0977H435.914V31.0977ZM435.914 45.1895V47.1895H437.914V45.1895H435.914ZM417.823 45.1895V43.1895H415.823V45.1895H417.823ZM417.823 106V108H419.823V106H417.823ZM399.034 106H397.034V108H399.034V106ZM399.034 43.1895H380.943V47.1895H399.034V43.1895ZM382.943 45.1895V31.0977H378.943V45.1895H382.943ZM380.943 33.0977H399.034V29.0977H380.943V33.0977ZM401.034 31.0977V7.80176H397.034V31.0977H401.034ZM399.034 9.80176H417.823V5.80176H399.034V9.80176ZM415.823 7.80176V31.0977H419.823V7.80176H415.823ZM417.823 33.0977H435.914V29.0977H417.823V33.0977ZM433.914 31.0977V45.1895H437.914V31.0977H433.914ZM435.914 43.1895H417.823V47.1895H435.914V43.1895ZM415.823 45.1895V106H419.823V45.1895H415.823ZM417.823 104H399.034V108H417.823V104ZM401.034 106V45.1895H397.034V106H401.034ZM454.652 72.5479L452.884 71.6132L454.652 72.5479ZM461.698 64.9307L462.818 66.5878L462.826 66.5827L462.833 66.5774L461.698 64.9307ZM473.378 59.9795L473.855 61.9219L473.867 61.9187L473.378 59.9795ZM504.291 59.2178L504.027 61.2002L504.029 61.2005L504.291 59.2178ZM520.097 62.3281L519.597 64.2648L522.341 64.9721L522.089 62.1503L520.097 62.3281ZM517.938 55.79L516.227 56.8243L516.231 56.8323L516.236 56.8403L517.938 55.79ZM512.797 50.585L511.665 52.234L511.684 52.2467L511.702 52.2589L512.797 50.585ZM504.926 47.1572L504.415 49.091L504.422 49.0927L504.926 47.1572ZM471.601 49.3789L471.051 47.4558L471.043 47.4582L471.601 49.3789ZM464.237 52.1084L462.362 52.803L463.114 54.8326L465.078 53.9233L464.237 52.1084ZM458.524 36.6836L457.85 34.8007L455.947 35.4825L456.649 37.3782L458.524 36.6836ZM467.602 33.8906L467.099 31.9548L467.093 31.9565L467.602 33.8906ZM477.567 31.7324L477.912 33.7025L477.924 33.7004L477.936 33.6982L477.567 31.7324ZM528.793 40.4922L527.345 41.8717L528.793 40.4922ZM539.013 106V108H541.013V106H539.013ZM520.224 106H518.224V108H520.224V106ZM520.224 98.9541H522.224V95.4611L519.211 97.2293L520.224 98.9541ZM513.812 102.191L513.013 100.358L513 100.364L513.812 102.191ZM497.562 106.635L497.295 104.653L497.28 104.655L497.264 104.657L497.562 106.635ZM472.299 105.429L471.745 107.35L471.749 107.352L472.299 105.429ZM461.254 100.16L460.047 101.755L461.254 100.16ZM454.525 92.2891L452.727 93.1634L452.734 93.1785L452.742 93.1935L454.525 92.2891ZM473.061 85.3066L471.312 86.2779L471.32 86.2921L471.328 86.3061L473.061 85.3066ZM476.107 88.29L475.034 89.9774L475.052 89.9891L475.071 90.0004L476.107 88.29ZM481.439 90.3848L480.945 92.3228L480.968 92.3284L480.99 92.3335L481.439 90.3848ZM498.959 90.2578L498.582 88.2936L498.959 90.2578ZM520.224 80.6094L521.594 82.0658L522.224 81.4735V80.6094H520.224ZM520.224 77.3086H522.224V75.7908L520.762 75.3824L520.224 77.3086ZM511.654 75.2773L511.268 77.2396L511.273 77.2407L511.654 75.2773ZM503.593 74.0078L503.328 75.9903L503.347 75.9927L503.365 75.9948L503.593 74.0078ZM496.356 73.3096L496.243 75.3064L496.246 75.3065L496.356 73.3096ZM481.693 73.8174L482.086 75.7785L481.693 73.8174ZM476.044 75.7217L476.98 77.4893L477 77.4786L477.02 77.4676L476.044 75.7217ZM454.304 82.3867C454.304 79.0909 455.018 76.1357 456.421 73.4825L452.884 71.6132C451.155 74.8845 450.304 78.4885 450.304 82.3867H454.304ZM456.421 73.4825C457.814 70.8461 459.923 68.5436 462.818 66.5878L460.579 63.2735C457.21 65.5495 454.622 68.3251 452.884 71.6132L456.421 73.4825ZM462.833 66.5774C465.721 64.5875 469.376 63.021 473.855 61.9218L472.901 58.0371C468.07 59.2231 463.939 60.9575 460.563 63.2839L462.833 66.5774ZM473.867 61.9187C478.367 60.7837 483.655 60.2021 489.755 60.2021V56.2021C483.413 56.2021 477.784 56.8055 472.889 58.0402L473.867 61.9187ZM489.755 60.2021C494.27 60.2021 499.027 60.5336 504.027 61.2002L504.555 57.2353C499.399 56.5478 494.465 56.2021 489.755 56.2021V60.2021ZM504.029 61.2005C509.063 61.8662 514.252 62.8868 519.597 64.2648L520.596 60.3915C515.108 58.9765 509.76 57.9235 504.553 57.235L504.029 61.2005ZM522.089 62.1503C521.85 59.4769 521.034 56.998 519.641 54.7398L516.236 56.8403C517.298 58.56 517.92 60.4398 518.105 62.506L522.089 62.1503ZM519.65 54.7558C518.252 52.4411 516.316 50.4961 513.891 48.911L511.702 52.2589C513.679 53.5514 515.171 55.0765 516.227 56.8243L519.65 54.7558ZM513.929 48.9359C511.542 47.2984 508.695 46.0717 505.43 45.2217L504.422 49.0927C507.335 49.8508 509.735 50.9093 511.665 52.234L513.929 48.9359ZM505.436 45.2234C502.189 44.3666 498.542 43.9512 494.516 43.9512V47.9512C498.275 47.9512 501.569 48.3398 504.415 49.091L505.436 45.2234ZM494.516 43.9512C492.321 43.9512 489.926 44.0827 487.334 44.342L487.732 48.3221C490.218 48.0735 492.478 47.9512 494.516 47.9512V43.9512ZM487.334 44.342C484.734 44.602 482.054 44.9913 479.294 45.5089L480.031 49.4404C482.687 48.9422 485.254 48.5699 487.732 48.3221L487.334 44.342ZM479.294 45.5089C476.524 46.0282 473.776 46.6772 471.051 47.4559L472.15 51.302C474.757 50.5572 477.384 49.9367 480.031 49.4404L479.294 45.5089ZM471.043 47.4582C468.331 48.2457 465.781 49.1898 463.397 50.2935L465.078 53.9233C467.264 52.9111 469.623 52.0356 472.158 51.2996L471.043 47.4582ZM466.113 51.4138L460.4 35.989L456.649 37.3782L462.362 52.803L466.113 51.4138ZM459.199 38.5664C461.975 37.5722 464.945 36.6579 468.111 35.8248L467.093 31.9565C463.826 32.816 460.745 33.7638 457.85 34.8007L459.199 38.5664ZM468.104 35.8264C471.31 34.9939 474.579 34.2858 477.912 33.7025L477.223 29.7624C473.785 30.3639 470.41 31.0947 467.099 31.9549L468.104 35.8264ZM477.936 33.6982C481.266 33.0738 484.595 32.5953 487.923 32.2625L487.525 28.2824C484.082 28.6267 480.64 29.1215 477.199 29.7667L477.936 33.6982ZM487.923 32.2625C491.247 31.9301 494.46 31.7646 497.562 31.7646V27.7646C494.318 27.7646 490.971 27.9377 487.525 28.2824L487.923 32.2625ZM497.562 31.7646C511.255 31.7646 521.044 35.258 527.345 41.8717L530.241 39.1127C522.915 31.4229 511.884 27.7646 497.562 27.7646V31.7646ZM527.345 41.8717C533.662 48.5032 537.013 58.868 537.013 73.373H541.013C541.013 58.3404 537.55 46.7846 530.241 39.1127L527.345 41.8717ZM537.013 73.373V106H541.013V73.373H537.013ZM539.013 104H520.224V108H539.013V104ZM522.224 106V98.9541H518.224V106H522.224ZM519.211 97.2293C517.341 98.327 515.276 99.3707 513.013 100.358L514.612 104.024C517.004 102.981 519.213 101.866 521.236 100.679L519.211 97.2293ZM513 100.364C510.813 101.336 508.408 102.193 505.781 102.932L506.864 106.783C509.653 105.998 512.242 105.078 514.625 104.019L513 100.364ZM505.781 102.932C503.172 103.666 500.345 104.241 497.295 104.653L497.83 108.617C501.043 108.183 504.055 107.573 506.864 106.783L505.781 102.932ZM497.264 104.657C494.284 105.106 491.105 105.333 487.724 105.333V109.333C491.283 109.333 494.663 109.094 497.861 108.612L497.264 104.657ZM487.724 105.333C482.023 105.333 477.073 104.713 472.848 103.506L471.749 107.352C476.411 108.684 481.744 109.333 487.724 109.333V105.333ZM472.853 103.507C468.635 102.29 465.188 100.63 462.461 98.5656L460.047 101.755C463.244 104.176 467.161 106.028 471.745 107.35L472.853 103.507ZM462.461 98.5656C459.716 96.487 457.682 94.0915 456.309 91.3846L452.742 93.1935C454.416 96.4958 456.868 99.3477 460.047 101.755L462.461 98.5656ZM456.324 91.4147C454.982 88.6537 454.304 85.6538 454.304 82.3867H450.304C450.304 86.229 451.107 89.8307 452.727 93.1634L456.324 91.4147ZM470.108 81.752C470.108 83.3412 470.523 84.8582 471.312 86.2779L474.809 84.3354C474.328 83.4699 474.108 82.6171 474.108 81.752H470.108ZM471.328 86.3061C472.165 87.757 473.445 88.9664 475.034 89.9774L477.181 86.6027C475.977 85.8363 475.225 85.0568 474.793 84.3072L471.328 86.3061ZM475.071 90.0004C476.685 90.9785 478.661 91.7404 480.945 92.3228L481.933 88.4467C479.902 87.9289 478.323 87.2943 477.144 86.5796L475.071 90.0004ZM480.99 92.3335C483.38 92.8852 486.185 93.1465 489.374 93.1465V89.1465C486.385 89.1465 483.9 88.8999 481.889 88.436L480.99 92.3335ZM489.374 93.1465C492.795 93.1465 496.116 92.8394 499.336 92.222L498.582 88.2936C495.623 88.8611 492.555 89.1465 489.374 89.1465V93.1465ZM499.336 92.222C502.519 91.6115 505.501 90.8016 508.278 89.7879L506.906 86.0305C504.351 86.9633 501.577 87.7192 498.582 88.2936L499.336 92.222ZM508.278 89.7879C511.043 88.7784 513.567 87.6073 515.842 86.2688L513.814 82.8211C511.773 84.0216 509.473 85.0933 506.906 86.0305L508.278 89.7879ZM515.842 86.2688C518.096 84.9427 520.023 83.545 521.594 82.0658L518.853 79.153C517.547 80.3821 515.876 81.6081 513.814 82.8211L515.842 86.2688ZM522.224 80.6094V77.3086H518.224V80.6094H522.224ZM520.762 75.3824C517.834 74.5643 514.925 73.8747 512.035 73.314L511.273 77.2407C514.054 77.7802 516.858 78.4448 519.685 79.2348L520.762 75.3824ZM512.041 73.315C509.2 72.7555 506.46 72.3237 503.821 72.0209L503.365 75.9948C505.888 76.2844 508.522 76.6989 511.268 77.2396L512.041 73.315ZM503.857 72.0254C501.273 71.6808 498.809 71.4428 496.467 71.3126L496.246 75.3065C498.474 75.4303 500.834 75.6577 503.328 75.9903L503.857 72.0254ZM496.469 71.3128C494.2 71.1843 492.193 71.1191 490.453 71.1191V75.1191C492.098 75.1191 494.027 75.1809 496.243 75.3064L496.469 71.3128ZM490.453 71.1191C486.865 71.1191 483.803 71.3558 481.301 71.8562L482.086 75.7785C484.238 75.348 487.016 75.1191 490.453 75.1191V71.1191ZM481.301 71.8562C478.851 72.3462 476.75 73.036 475.068 73.9758L477.02 77.4676C478.216 76.7993 479.881 76.2195 482.086 75.7785L481.301 71.8562ZM475.108 73.9541C473.443 74.8358 472.087 75.9833 471.252 77.474L474.742 79.4284C475.092 78.8031 475.768 78.131 476.98 77.4893L475.108 73.9541ZM471.252 77.474C470.503 78.8116 470.108 80.2461 470.108 81.752H474.108C474.108 80.9726 474.306 80.2067 474.742 79.4284L471.252 77.474ZM565.622 53.3779L563.781 52.596L563.778 52.604L565.622 53.3779ZM574.445 41L575.784 42.4858L575.785 42.485L574.445 41ZM588.664 32.748L587.998 30.8623L587.993 30.8639L588.664 32.748ZM626.496 31.9863L626.018 33.9283L626.034 33.9323L626.05 33.936L626.496 31.9863ZM634.812 34.4619L634.106 36.3333L634.119 36.3384L634.133 36.3433L634.812 34.4619ZM641.54 37.5723L643.244 38.6192L644.302 36.8971L642.569 35.8573L641.54 37.5723ZM632.844 51.7275L632.002 53.5418L633.616 54.2907L634.548 52.7745L632.844 51.7275ZM621.164 47.5381L620.69 49.481L620.695 49.4823L621.164 47.5381ZM598.439 47.9189L599.051 49.8232L599.061 49.8198L599.072 49.8163L598.439 47.9189ZM589.68 52.6162L590.965 54.1482L590.968 54.146L589.68 52.6162ZM584.221 59.7256L582.405 58.8874L582.399 58.9001L584.221 59.7256ZM584.348 77.5625L582.542 78.4234L582.55 78.4403L582.559 78.4569L584.348 77.5625ZM589.997 84.6084L588.725 86.1515L588.739 86.1636L588.754 86.1754L589.997 84.6084ZM598.82 89.2422L598.188 91.1396L598.202 91.1442L598.216 91.1486L598.82 89.2422ZM623.513 88.9248L622.909 87.0179L622.904 87.0197L623.513 88.9248ZM635.065 83.6562L636.77 82.6093L635.719 80.8994L634.013 81.9557L635.065 83.6562ZM643.762 97.8115L644.795 99.5237L646.521 98.4819L645.466 96.7646L643.762 97.8115ZM636.462 101.62L637.26 103.454L637.273 103.448L637.285 103.443L636.462 101.62ZM628.02 104.604L627.477 102.678L627.47 102.68L628.02 104.604ZM618.625 106.571L618.346 104.591L618.331 104.593L618.317 104.595L618.625 106.571ZM589.235 104.413L588.586 106.305L589.235 104.413ZM574.826 96.3516L573.503 97.8517L573.513 97.8597L574.826 96.3516ZM565.749 84.1006L563.919 84.9083L563.922 84.9151L563.925 84.922L565.749 84.1006ZM564.639 68.7393C564.639 63.4848 565.587 58.6295 567.466 54.1518L563.778 52.604C561.679 57.6055 560.639 62.9911 560.639 68.7393H564.639ZM567.463 54.1599C569.38 49.6457 572.15 45.7602 575.784 42.4858L573.106 39.5142C569.038 43.1799 565.926 47.5463 563.781 52.596L567.463 54.1599ZM575.785 42.485C579.46 39.1697 583.964 36.5446 589.335 34.6322L587.993 30.8639C582.192 32.9293 577.217 35.8055 573.106 39.515L575.785 42.485ZM589.33 34.6338C594.706 32.7342 600.885 31.7646 607.897 31.7646V27.7646C600.522 27.7646 593.879 28.784 587.998 30.8623L589.33 34.6338ZM607.897 31.7646C610.948 31.7646 614.021 31.9501 617.117 32.3217L617.594 28.3502C614.342 27.96 611.11 27.7646 607.897 27.7646V31.7646ZM617.117 32.3217C620.215 32.6934 623.182 33.2295 626.018 33.9283L626.975 30.0444C623.971 29.3043 620.843 28.7401 617.594 28.3502L617.117 32.3217ZM626.05 33.936C628.933 34.5949 631.617 35.395 634.106 36.3333L635.517 32.5905C632.843 31.5822 629.984 30.7319 626.942 30.0366L626.05 33.936ZM634.133 36.3433C636.62 37.2401 638.74 38.2248 640.511 39.2873L642.569 35.8573C640.531 34.6346 638.166 33.5457 635.49 32.5805L634.133 36.3433ZM639.836 36.5254L631.14 50.6806L634.548 52.7745L643.244 38.6192L639.836 36.5254ZM633.685 49.9133C629.483 47.9639 625.465 46.5188 621.633 45.5939L620.695 49.4823C624.226 50.3347 627.994 51.6826 632.002 53.5418L633.685 49.9133ZM621.638 45.5952C617.843 44.6684 613.981 44.2051 610.056 44.2051V48.2051C613.663 48.2051 617.206 48.6305 620.69 49.481L621.638 45.5952ZM610.056 44.2051C605.565 44.2051 601.474 44.7993 597.807 46.0216L599.072 49.8163C602.26 48.7535 605.914 48.2051 610.056 48.2051V44.2051ZM597.828 46.0146C594.187 47.1833 591.029 48.8654 588.391 51.0864L590.968 54.146C593.155 52.3046 595.836 50.8551 599.051 49.8232L597.828 46.0146ZM588.394 51.0843C585.803 53.2584 583.8 55.8635 582.405 58.8875L586.037 60.5637C587.18 58.0864 588.816 55.9518 590.965 54.1482L588.394 51.0843ZM582.399 58.9001C581.045 61.8884 580.38 65.135 580.38 68.6123H584.38C584.38 65.6573 584.942 62.9794 586.042 60.551L582.399 58.9001ZM580.38 68.6123C580.38 72.1095 581.095 75.3891 582.542 78.4234L586.153 76.7016C584.976 74.2346 584.38 71.5474 584.38 68.6123H580.38ZM582.559 78.4569C584.042 81.4234 586.104 83.9907 588.725 86.1515L591.269 83.0653C589.066 81.2482 587.362 79.1183 586.137 76.6681L582.559 78.4569ZM588.754 86.1754C591.417 88.2872 594.572 89.9344 598.188 91.1396L599.453 87.3448C596.213 86.2648 593.486 84.8228 591.24 83.0414L588.754 86.1754ZM598.216 91.1486C601.91 92.32 605.969 92.8926 610.373 92.8926V88.8926C606.314 88.8926 602.671 88.3649 599.425 87.3357L598.216 91.1486ZM610.373 92.8926C615.218 92.8926 619.805 92.2095 624.122 90.8299L622.904 87.0197C619.011 88.2638 614.838 88.8926 610.373 88.8926V92.8926ZM624.116 90.8317C628.414 89.4719 632.417 87.6479 636.118 85.3568L634.013 81.9557C630.604 84.0657 626.905 85.754 622.91 87.0179L624.116 90.8317ZM633.361 84.7032L642.058 98.8584L645.466 96.7646L636.77 82.6093L633.361 84.7032ZM642.728 96.0994C640.559 97.4088 638.197 98.642 635.639 99.7974L637.285 103.443C639.974 102.228 642.478 100.923 644.795 99.5237L642.728 96.0994ZM635.663 99.7864C633.13 100.89 630.402 101.855 627.477 102.678L628.562 106.529C631.646 105.66 634.546 104.636 637.26 103.454L635.663 99.7864ZM627.47 102.68C624.603 103.5 621.563 104.137 618.346 104.591L618.904 108.552C622.289 108.074 625.511 107.4 628.569 106.527L627.47 102.68ZM618.317 104.595C615.167 105.086 611.885 105.333 608.469 105.333V109.333C612.078 109.333 615.566 109.072 618.933 108.547L618.317 104.595ZM608.469 105.333C601.497 105.333 595.31 104.384 589.885 102.521L588.586 106.305C594.501 108.335 601.138 109.333 608.469 109.333V105.333ZM589.885 102.521C584.422 100.646 579.854 98.0784 576.14 94.8434L573.513 97.8597C577.669 101.48 582.707 104.287 588.586 106.305L589.885 102.521ZM576.149 94.8514C572.423 91.5659 569.569 87.7123 567.573 83.2792L563.925 84.922C566.16 89.8834 569.359 94.1972 573.503 97.8517L576.149 94.8514ZM567.579 83.2929C565.626 78.8698 564.639 74.0272 564.639 68.7393H560.639C560.639 74.5386 561.725 79.9368 563.919 84.9083L567.579 83.2929ZM667.324 0.692383V-1.30762H665.324V0.692383H667.324ZM686.113 0.692383H688.113V-1.30762H686.113V0.692383ZM686.113 62.8994H684.113V67.4156L687.457 64.3804L686.113 62.8994ZM721.152 31.0977V29.0977H720.38L719.808 29.6167L721.152 31.0977ZM749.907 31.0977L751.241 32.5882L755.142 29.0977H749.907V31.0977ZM710.742 66.1367L709.409 64.6462L707.798 66.087L709.359 67.5814L710.742 66.1367ZM752.383 106V108H757.364L753.766 104.555L752.383 106ZM724.199 106L722.808 107.437L723.39 108H724.199V106ZM696.333 79.0225L697.724 77.5855L696.387 76.291L695 77.5317L696.333 79.0225ZM686.113 88.1631L684.78 86.6724L684.113 87.2686V88.1631H686.113ZM686.113 106V108H688.113V106H686.113ZM667.324 106H665.324V108H667.324V106ZM667.324 2.69238H686.113V-1.30762H667.324V2.69238ZM684.113 0.692383V62.8994H688.113V0.692383H684.113ZM687.457 64.3804L722.496 32.5786L719.808 29.6167L684.769 61.4184L687.457 64.3804ZM721.152 33.0977H749.907V29.0977H721.152V33.0977ZM748.574 29.6071L709.409 64.6462L712.076 67.6273L751.241 32.5882L748.574 29.6071ZM709.359 67.5814L751 107.445L753.766 104.555L712.125 64.692L709.359 67.5814ZM752.383 104H724.199V108H752.383V104ZM725.59 104.563L697.724 77.5855L694.942 80.4594L722.808 107.437L725.59 104.563ZM695 77.5317L684.78 86.6724L687.447 89.6538L697.666 80.5132L695 77.5317ZM684.113 88.1631V106H688.113V88.1631H684.113ZM686.113 104H667.324V108H686.113V104ZM669.324 106V0.692383H665.324V106H669.324Z" fill="#065666"/>
</svg>
